<?xml version="1.0" encoding="iso-8859-1"?>
<!-- Uploaded to: SVG Repo, www.svgrepo.com, Generator: SVG Repo Mixer Tools -->
<svg fill="black" version="1.1" id="Layer_1" xmlns="http://www.w3.org/2000/svg" xmlns:xlink="http://www.w3.org/1999/xlink"
	 viewBox="0 0 480 480" xml:space="preserve">
<g>
	<g>
		<path d="M424,112c-19.12,0-36.264,8.472-48,21.808V40c0-22.056-17.944-40-40-40H192c-22.056,0-40,17.944-40,40v52.688
			l-51.72-51.72C94.496,35.184,86.808,32,78.624,32C61.744,32,48,45.744,48,62.624c0,8.176,3.184,15.872,8.968,21.656l76.024,76.024
			C116.768,161.848,104,175.384,104,192c0,9.608,4.336,18.128,11.056,24c-6.72,5.872-11.056,14.392-11.056,24
			c0,9.608,4.336,18.128,11.056,24c-6.72,5.872-11.056,14.392-11.056,24c0,17.648,14.352,32,32,32c5.856,0,11.272-1.696,16-4.448
			V360c0,22.056,17.944,40,40,40h40v80h16v-80h88c22.056,0,40-17.944,40-40V224v-48c0-23.744,17.328-43.512,40-47.336V480h16V120
			C432,115.576,428.424,112,424,112z M136,304c-8.824,0-16-7.176-16-16c0-8.824,7.176-16,16-16c8.824,0,16,7.176,16,16
			C152,296.824,144.824,304,136,304z M136,256c-8.824,0-16-7.176-16-16c0-8.824,7.176-16,16-16c8.824,0,16,7.176,16,16
			C152,248.824,144.824,256,136,256z M136,208c-8.824,0-16-7.176-16-16c0-8.824,7.176-16,16-16c8.824,0,16,7.176,16,16
			C152,200.824,144.824,208,136,208z M152,156.688l-83.72-83.72C65.56,70.248,64,66.48,64,62.624C64,54.56,70.56,48,78.624,48
			c3.848,0,7.624,1.56,10.344,4.28L152,115.312V156.688z M360,360c0,13.232-10.768,24-24,24H192c-13.232,0-24-10.768-24-24v-8h192
			V360z M360,176v48v112H168V64h192V176z M360,48H168v-8c0-13.232,10.768-24,24-24h144c13.232,0,24,10.768,24,24V48z"/>
	</g>
</g>
<g>
	<g>
		<path d="M264,88c-44.112,0-80,35.888-80,80s35.888,80,80,80s80-35.888,80-80S308.112,88,264,88z M272,104.56
			c19.008,2.384,35.44,13.104,45.496,28.408l-29.272,17.56L272,139.72V104.56z M278.872,163.528L273.752,184h-19.504l-5.128-20.472
			l14.88-9.912L278.872,163.528z M256,104.552v35.16l-16.224,10.816l-29.272-17.56C220.56,117.664,236.992,106.944,256,104.552z
			 M200,168c0-7.208,1.256-14.12,3.464-20.592l29.584,17.752l6.272,25.088l-18.584,24.776C208.024,203.32,200,186.6,200,168z
			 M264,232c-10.944,0-21.256-2.768-30.28-7.64L252,200h24l18.272,24.36C285.256,229.232,274.944,232,264,232z M307.264,215.024
			l-18.584-24.776l6.272-25.088l29.584-17.752C326.744,153.88,328,160.792,328,168C328,186.6,319.976,203.32,307.264,215.024z"/>
	</g>
</g>
<g>
	<g>
		<rect x="224" y="296" width="16" height="16"/>
	</g>
</g>
<g>
	<g>
		<rect x="256" y="296" width="16" height="16"/>
	</g>
</g>
<g>
	<g>
		<rect x="288" y="296" width="16" height="16"/>
	</g>
</g>
<g>
	<g>
		<rect x="256" y="264" width="16" height="16"/>
	</g>
</g>
</svg>